<mxfile host="Electron" modified="2023-09-23T17:23:30.131Z" agent="Mozilla/5.0 (Windows NT 10.0; Win64; x64) AppleWebKit/537.36 (KHTML, like Gecko) draw.io/21.6.8 Chrome/114.0.5735.289 Electron/25.5.0 Safari/537.36" etag="pkycDRgzFKK6aDo3Xu0z" version="21.6.8" type="device" pages="2">
  <diagram name="值传递和引用传递" id="xZ36-Uk2qN_AMFSexb2k">
    <mxGraphModel dx="1100" dy="817" grid="1" gridSize="10" guides="1" tooltips="1" connect="1" arrows="1" fold="1" page="1" pageScale="1" pageWidth="827" pageHeight="1169" math="0" shadow="0">
      <root>
        <mxCell id="0" />
        <mxCell id="1" parent="0" />
        <mxCell id="jAFCzvt1h2YVh9Wsnnv7-1" value="堆" style="rounded=1;whiteSpace=wrap;html=1;fontSize=25;verticalAlign=bottom;sketch=1;curveFitting=1;jiggle=2;" parent="1" vertex="1">
          <mxGeometry x="323" y="70" width="290" height="160" as="geometry" />
        </mxCell>
        <mxCell id="jAFCzvt1h2YVh9Wsnnv7-3" value="" style="endArrow=classic;html=1;rounded=1;entryX=0;entryY=0.25;entryDx=0;entryDy=0;sketch=1;curveFitting=1;jiggle=2;" parent="1" target="jAFCzvt1h2YVh9Wsnnv7-5" edge="1">
          <mxGeometry width="50" height="50" relative="1" as="geometry">
            <mxPoint x="253" y="80" as="sourcePoint" />
            <mxPoint x="223" y="145" as="targetPoint" />
          </mxGeometry>
        </mxCell>
        <mxCell id="jAFCzvt1h2YVh9Wsnnv7-4" value="ping" style="text;html=1;strokeColor=none;fillColor=none;align=center;verticalAlign=middle;whiteSpace=wrap;rounded=1;fontSize=17;sketch=1;curveFitting=1;jiggle=2;" parent="1" vertex="1">
          <mxGeometry x="200" y="60" width="60" height="30" as="geometry" />
        </mxCell>
        <mxCell id="jAFCzvt1h2YVh9Wsnnv7-5" value="0x123456" style="text;html=1;strokeColor=none;fillColor=none;align=center;verticalAlign=middle;whiteSpace=wrap;rounded=1;fontSize=15;fontColor=#FF66FF;sketch=1;curveFitting=1;jiggle=2;" parent="1" vertex="1">
          <mxGeometry x="353" y="125" width="80" height="20" as="geometry" />
        </mxCell>
        <mxCell id="jAFCzvt1h2YVh9Wsnnv7-9" value="User" style="swimlane;fontStyle=1;align=center;verticalAlign=top;childLayout=stackLayout;horizontal=1;startSize=26;horizontalStack=0;resizeParent=1;resizeParentMax=0;resizeLast=0;collapsible=1;marginBottom=0;whiteSpace=wrap;html=1;rounded=1;sketch=1;curveFitting=1;jiggle=2;" parent="1" vertex="1">
          <mxGeometry x="443" y="100" width="160" height="70" as="geometry" />
        </mxCell>
        <mxCell id="jAFCzvt1h2YVh9Wsnnv7-10" value="name = &quot;ping&quot;&lt;br&gt;age = 33" style="text;strokeColor=none;fillColor=none;align=left;verticalAlign=top;spacingLeft=4;spacingRight=4;overflow=hidden;rotatable=0;points=[[0,0.5],[1,0.5]];portConstraint=eastwest;whiteSpace=wrap;html=1;rounded=1;sketch=1;curveFitting=1;jiggle=2;" parent="jAFCzvt1h2YVh9Wsnnv7-9" vertex="1">
          <mxGeometry y="26" width="160" height="44" as="geometry" />
        </mxCell>
        <mxCell id="jAFCzvt1h2YVh9Wsnnv7-13" value="User ping = new User(&quot;ping&quot;, 33);" style="text;html=1;align=center;verticalAlign=middle;resizable=0;points=[];autosize=1;strokeColor=#6c8ebf;fillColor=#dae8fc;rounded=1;sketch=1;curveFitting=1;jiggle=2;" parent="1" vertex="1">
          <mxGeometry x="60" y="20" width="200" height="30" as="geometry" />
        </mxCell>
        <mxCell id="jAFCzvt1h2YVh9Wsnnv7-14" value="&lt;div style=&quot;text-align: left;&quot;&gt;&lt;span style=&quot;background-color: initial;&quot;&gt;happyBirthday(ping);&lt;/span&gt;&lt;/div&gt;&lt;div style=&quot;text-align: left;&quot;&gt;&lt;span style=&quot;background-color: initial;&quot;&gt;&lt;br&gt;&lt;/span&gt;&lt;/div&gt;&lt;div style=&quot;text-align: left;&quot;&gt;&lt;span style=&quot;background-color: initial;&quot;&gt;public void happyBirthday(User user) {&lt;/span&gt;&lt;/div&gt;&lt;div style=&quot;text-align: left;&quot;&gt;&lt;span style=&quot;background-color: initial;&quot;&gt;&amp;nbsp; &amp;nbsp; &amp;nbsp; &amp;nbsp; user.setAge(34);&lt;/span&gt;&lt;/div&gt;&lt;div style=&quot;text-align: left;&quot;&gt;&lt;span style=&quot;background-color: initial;&quot;&gt;&amp;nbsp; &amp;nbsp; &amp;nbsp; &amp;nbsp; print(&quot;生日快乐&quot;);&lt;/span&gt;&lt;/div&gt;&lt;div style=&quot;text-align: left;&quot;&gt;&lt;span style=&quot;background-color: initial;&quot;&gt;}&lt;/span&gt;&lt;/div&gt;" style="text;html=1;align=center;verticalAlign=middle;resizable=0;points=[];autosize=1;strokeColor=#6c8ebf;fillColor=#dae8fc;rounded=1;sketch=1;curveFitting=1;jiggle=2;" parent="1" vertex="1">
          <mxGeometry x="60" y="325" width="230" height="100" as="geometry" />
        </mxCell>
        <mxCell id="jAFCzvt1h2YVh9Wsnnv7-15" value="堆" style="rounded=1;whiteSpace=wrap;html=1;fontSize=25;verticalAlign=bottom;sketch=1;curveFitting=1;jiggle=2;" parent="1" vertex="1">
          <mxGeometry x="323" y="425" width="290" height="160" as="geometry" />
        </mxCell>
        <mxCell id="jAFCzvt1h2YVh9Wsnnv7-16" value="" style="endArrow=classic;html=1;rounded=1;entryX=0;entryY=0.25;entryDx=0;entryDy=0;exitX=1;exitY=0.75;exitDx=0;exitDy=0;sketch=1;curveFitting=1;jiggle=2;" parent="1" source="jAFCzvt1h2YVh9Wsnnv7-20" target="jAFCzvt1h2YVh9Wsnnv7-17" edge="1">
          <mxGeometry width="50" height="50" relative="1" as="geometry">
            <mxPoint x="253" y="451" as="sourcePoint" />
            <mxPoint x="223" y="500" as="targetPoint" />
          </mxGeometry>
        </mxCell>
        <mxCell id="jAFCzvt1h2YVh9Wsnnv7-23" value="&amp;nbsp;引用1&amp;nbsp;" style="edgeLabel;html=1;align=center;verticalAlign=middle;resizable=0;points=[];rounded=1;sketch=1;curveFitting=1;jiggle=2;" parent="jAFCzvt1h2YVh9Wsnnv7-16" vertex="1" connectable="0">
          <mxGeometry x="-0.3053" y="-2" relative="1" as="geometry">
            <mxPoint y="-1" as="offset" />
          </mxGeometry>
        </mxCell>
        <mxCell id="jAFCzvt1h2YVh9Wsnnv7-17" value="0x123456" style="text;html=1;strokeColor=none;fillColor=none;align=center;verticalAlign=middle;whiteSpace=wrap;rounded=1;fontSize=15;fontColor=#FF66FF;sketch=1;curveFitting=1;jiggle=2;" parent="1" vertex="1">
          <mxGeometry x="353" y="480" width="80" height="20" as="geometry" />
        </mxCell>
        <mxCell id="jAFCzvt1h2YVh9Wsnnv7-18" value="User" style="swimlane;fontStyle=1;align=center;verticalAlign=top;childLayout=stackLayout;horizontal=1;startSize=26;horizontalStack=0;resizeParent=1;resizeParentMax=0;resizeLast=0;collapsible=1;marginBottom=0;whiteSpace=wrap;html=1;rounded=1;sketch=1;curveFitting=1;jiggle=2;" parent="1" vertex="1">
          <mxGeometry x="443" y="455" width="160" height="70" as="geometry" />
        </mxCell>
        <mxCell id="jAFCzvt1h2YVh9Wsnnv7-19" value="name = &quot;ping&quot;&lt;br&gt;age = 34" style="text;strokeColor=none;fillColor=none;align=left;verticalAlign=top;spacingLeft=4;spacingRight=4;overflow=hidden;rotatable=0;points=[[0,0.5],[1,0.5]];portConstraint=eastwest;whiteSpace=wrap;html=1;rounded=1;sketch=1;curveFitting=1;jiggle=2;" parent="jAFCzvt1h2YVh9Wsnnv7-18" vertex="1">
          <mxGeometry y="26" width="160" height="44" as="geometry" />
        </mxCell>
        <mxCell id="jAFCzvt1h2YVh9Wsnnv7-20" value="ping" style="text;html=1;strokeColor=none;fillColor=none;align=center;verticalAlign=middle;whiteSpace=wrap;rounded=1;fontSize=17;sketch=1;curveFitting=1;jiggle=2;" parent="1" vertex="1">
          <mxGeometry x="181" y="441" width="60" height="30" as="geometry" />
        </mxCell>
        <mxCell id="jAFCzvt1h2YVh9Wsnnv7-21" value="" style="endArrow=classic;html=1;rounded=1;entryX=0;entryY=0.75;entryDx=0;entryDy=0;exitX=1;exitY=0.5;exitDx=0;exitDy=0;sketch=1;curveFitting=1;jiggle=2;" parent="1" source="jAFCzvt1h2YVh9Wsnnv7-22" target="jAFCzvt1h2YVh9Wsnnv7-17" edge="1">
          <mxGeometry width="50" height="50" relative="1" as="geometry">
            <mxPoint x="263" y="461" as="sourcePoint" />
            <mxPoint x="363" y="495" as="targetPoint" />
          </mxGeometry>
        </mxCell>
        <mxCell id="jAFCzvt1h2YVh9Wsnnv7-24" value="&amp;nbsp;引用2&amp;nbsp;" style="edgeLabel;html=1;align=center;verticalAlign=middle;resizable=0;points=[];rounded=1;sketch=1;curveFitting=1;jiggle=2;" parent="jAFCzvt1h2YVh9Wsnnv7-21" vertex="1" connectable="0">
          <mxGeometry x="-0.2979" y="-1" relative="1" as="geometry">
            <mxPoint as="offset" />
          </mxGeometry>
        </mxCell>
        <mxCell id="jAFCzvt1h2YVh9Wsnnv7-22" value="user" style="text;html=1;strokeColor=none;fillColor=none;align=center;verticalAlign=middle;whiteSpace=wrap;rounded=1;fontSize=17;sketch=1;curveFitting=1;jiggle=2;" parent="1" vertex="1">
          <mxGeometry x="177" y="530" width="60" height="30" as="geometry" />
        </mxCell>
        <mxCell id="jAFCzvt1h2YVh9Wsnnv7-25" value="&lt;div style=&quot;text-align: left;&quot;&gt;&lt;span style=&quot;background-color: initial;&quot;&gt;happyBirthday(ping);&lt;/span&gt;&lt;/div&gt;&lt;div style=&quot;text-align: left;&quot;&gt;&lt;span style=&quot;background-color: initial;&quot;&gt;&lt;br&gt;&lt;/span&gt;&lt;/div&gt;&lt;div style=&quot;text-align: left;&quot;&gt;&lt;span style=&quot;background-color: initial;&quot;&gt;public:&amp;nbsp;&lt;/span&gt;&lt;/div&gt;&lt;div style=&quot;text-align: left;&quot;&gt;&lt;span style=&quot;background-color: initial;&quot;&gt;void happyBirthday(User * user) {&lt;/span&gt;&lt;/div&gt;&lt;div style=&quot;text-align: left;&quot;&gt;&lt;span style=&quot;background-color: initial;&quot;&gt;&amp;nbsp; &amp;nbsp; &amp;nbsp; &amp;nbsp; user.setAge(34);&lt;/span&gt;&lt;/div&gt;&lt;div style=&quot;text-align: left;&quot;&gt;&lt;span style=&quot;background-color: initial;&quot;&gt;&amp;nbsp; &amp;nbsp; &amp;nbsp; &amp;nbsp; print(&quot;生日快乐&quot;);&lt;/span&gt;&lt;/div&gt;&lt;div style=&quot;text-align: left;&quot;&gt;&lt;span style=&quot;background-color: initial;&quot;&gt;}&lt;/span&gt;&lt;/div&gt;" style="text;html=1;align=center;verticalAlign=middle;resizable=0;points=[];autosize=1;strokeColor=#6c8ebf;fillColor=#dae8fc;rounded=1;sketch=1;curveFitting=1;jiggle=2;" parent="1" vertex="1">
          <mxGeometry x="75" y="680" width="200" height="110" as="geometry" />
        </mxCell>
        <mxCell id="jAFCzvt1h2YVh9Wsnnv7-26" value="堆" style="rounded=1;whiteSpace=wrap;html=1;fontSize=25;verticalAlign=bottom;sketch=1;curveFitting=1;jiggle=2;" parent="1" vertex="1">
          <mxGeometry x="323" y="785" width="290" height="160" as="geometry" />
        </mxCell>
        <mxCell id="jAFCzvt1h2YVh9Wsnnv7-27" value="" style="endArrow=classic;html=1;rounded=1;entryX=0;entryY=0.25;entryDx=0;entryDy=0;exitX=1;exitY=0.75;exitDx=0;exitDy=0;sketch=1;curveFitting=1;jiggle=2;" parent="1" source="jAFCzvt1h2YVh9Wsnnv7-32" target="jAFCzvt1h2YVh9Wsnnv7-29" edge="1">
          <mxGeometry width="50" height="50" relative="1" as="geometry">
            <mxPoint x="253" y="811" as="sourcePoint" />
            <mxPoint x="223" y="860" as="targetPoint" />
          </mxGeometry>
        </mxCell>
        <mxCell id="jAFCzvt1h2YVh9Wsnnv7-29" value="0x123456" style="text;html=1;strokeColor=none;fillColor=none;align=center;verticalAlign=middle;whiteSpace=wrap;rounded=1;fontSize=15;fontColor=#FF66FF;sketch=1;curveFitting=1;jiggle=2;" parent="1" vertex="1">
          <mxGeometry x="353" y="840" width="80" height="20" as="geometry" />
        </mxCell>
        <mxCell id="jAFCzvt1h2YVh9Wsnnv7-30" value="User" style="swimlane;fontStyle=1;align=center;verticalAlign=top;childLayout=stackLayout;horizontal=1;startSize=26;horizontalStack=0;resizeParent=1;resizeParentMax=0;resizeLast=0;collapsible=1;marginBottom=0;whiteSpace=wrap;html=1;rounded=1;sketch=1;curveFitting=1;jiggle=2;" parent="1" vertex="1">
          <mxGeometry x="443" y="815" width="160" height="70" as="geometry" />
        </mxCell>
        <mxCell id="jAFCzvt1h2YVh9Wsnnv7-31" value="name = &quot;ping&quot;&lt;br&gt;age = 34" style="text;strokeColor=none;fillColor=none;align=left;verticalAlign=top;spacingLeft=4;spacingRight=4;overflow=hidden;rotatable=0;points=[[0,0.5],[1,0.5]];portConstraint=eastwest;whiteSpace=wrap;html=1;rounded=1;sketch=1;curveFitting=1;jiggle=2;" parent="jAFCzvt1h2YVh9Wsnnv7-30" vertex="1">
          <mxGeometry y="26" width="160" height="44" as="geometry" />
        </mxCell>
        <mxCell id="jAFCzvt1h2YVh9Wsnnv7-32" value="ping" style="text;html=1;strokeColor=none;fillColor=none;align=center;verticalAlign=middle;whiteSpace=wrap;rounded=1;fontSize=17;sketch=1;curveFitting=1;jiggle=2;" parent="1" vertex="1">
          <mxGeometry x="200" y="810" width="60" height="30" as="geometry" />
        </mxCell>
        <mxCell id="jAFCzvt1h2YVh9Wsnnv7-33" value="" style="endArrow=classic;html=1;rounded=1;entryX=0;entryY=0.5;entryDx=0;entryDy=0;exitX=1;exitY=0.5;exitDx=0;exitDy=0;sketch=1;curveFitting=1;jiggle=2;" parent="1" source="jAFCzvt1h2YVh9Wsnnv7-35" target="jAFCzvt1h2YVh9Wsnnv7-32" edge="1">
          <mxGeometry width="50" height="50" relative="1" as="geometry">
            <mxPoint x="263" y="821" as="sourcePoint" />
            <mxPoint x="363" y="855" as="targetPoint" />
          </mxGeometry>
        </mxCell>
        <mxCell id="jAFCzvt1h2YVh9Wsnnv7-35" value="user" style="text;html=1;strokeColor=none;fillColor=none;align=center;verticalAlign=middle;whiteSpace=wrap;rounded=1;fontSize=17;sketch=1;curveFitting=1;jiggle=2;" parent="1" vertex="1">
          <mxGeometry x="73" y="801" width="60" height="30" as="geometry" />
        </mxCell>
        <mxCell id="jAFCzvt1h2YVh9Wsnnv7-36" value="Java 只有值传递，只不过对象的传递，传递的是地址值" style="text;html=1;align=center;verticalAlign=middle;resizable=0;points=[];autosize=1;strokeColor=none;fillColor=none;fontStyle=1;fontSize=18;rounded=1;sketch=1;curveFitting=1;jiggle=2;" parent="1" vertex="1">
          <mxGeometry x="20" y="270" width="460" height="40" as="geometry" />
        </mxCell>
        <mxCell id="jAFCzvt1h2YVh9Wsnnv7-37" value="C++ 才是真正的引用传递" style="text;html=1;align=center;verticalAlign=middle;resizable=0;points=[];autosize=1;strokeColor=none;fillColor=none;fontStyle=1;fontSize=18;rounded=1;sketch=1;curveFitting=1;jiggle=2;" parent="1" vertex="1">
          <mxGeometry x="20" y="630" width="220" height="40" as="geometry" />
        </mxCell>
      </root>
    </mxGraphModel>
  </diagram>
  <diagram id="vMopOLaqNfPHPrYh31It" name="int最大值和最小值">
    <mxGraphModel dx="1294" dy="961" grid="1" gridSize="10" guides="1" tooltips="1" connect="1" arrows="1" fold="1" page="1" pageScale="1" pageWidth="827" pageHeight="1169" math="0" shadow="0">
      <root>
        <mxCell id="0" />
        <mxCell id="1" parent="0" />
        <mxCell id="A_URDSyn6IpApK-KSMx7-3" value="&lt;font color=&quot;#ff0000&quot;&gt;0&lt;/font&gt;111 1111 1111 1111 1111 1111 1111 1111" style="text;html=1;strokeColor=none;fillColor=none;align=center;verticalAlign=middle;whiteSpace=wrap;rounded=0;fontSize=30;" vertex="1" parent="1">
          <mxGeometry x="250" y="140" width="580" height="40" as="geometry" />
        </mxCell>
        <mxCell id="A_URDSyn6IpApK-KSMx7-4" value="Integer.MAX_VALUE" style="text;html=1;align=center;verticalAlign=middle;whiteSpace=wrap;rounded=0;fontSize=24;fillColor=none;fontStyle=1;fontColor=#FF33FF;" vertex="1" parent="1">
          <mxGeometry x="7" y="145" width="240" height="30" as="geometry" />
        </mxCell>
        <mxCell id="A_URDSyn6IpApK-KSMx7-8" value="" style="endArrow=classic;html=1;rounded=0;entryX=0.954;entryY=0.028;entryDx=0;entryDy=0;entryPerimeter=0;exitX=0.527;exitY=0.961;exitDx=0;exitDy=0;exitPerimeter=0;" edge="1" parent="1" source="A_URDSyn6IpApK-KSMx7-9" target="A_URDSyn6IpApK-KSMx7-3">
          <mxGeometry width="50" height="50" relative="1" as="geometry">
            <mxPoint x="784" y="70" as="sourcePoint" />
            <mxPoint x="784" y="130" as="targetPoint" />
          </mxGeometry>
        </mxCell>
        <mxCell id="A_URDSyn6IpApK-KSMx7-9" value="2⁰" style="text;html=1;strokeColor=none;fillColor=none;align=center;verticalAlign=middle;whiteSpace=wrap;rounded=0;fontSize=30;" vertex="1" parent="1">
          <mxGeometry x="789" y="53" width="60" height="30" as="geometry" />
        </mxCell>
        <mxCell id="A_URDSyn6IpApK-KSMx7-10" value="" style="endArrow=classic;html=1;rounded=0;entryX=0.879;entryY=0.062;entryDx=0;entryDy=0;entryPerimeter=0;exitX=0.5;exitY=1;exitDx=0;exitDy=0;" edge="1" parent="1" source="A_URDSyn6IpApK-KSMx7-11" target="A_URDSyn6IpApK-KSMx7-3">
          <mxGeometry width="50" height="50" relative="1" as="geometry">
            <mxPoint x="740" y="70" as="sourcePoint" />
            <mxPoint x="740" y="130" as="targetPoint" />
          </mxGeometry>
        </mxCell>
        <mxCell id="A_URDSyn6IpApK-KSMx7-11" value="2³" style="text;html=1;strokeColor=none;fillColor=none;align=center;verticalAlign=middle;whiteSpace=wrap;rounded=0;fontSize=30;" vertex="1" parent="1">
          <mxGeometry x="729" y="53" width="60" height="30" as="geometry" />
        </mxCell>
        <mxCell id="A_URDSyn6IpApK-KSMx7-12" value="" style="endArrow=classic;html=1;rounded=0;entryX=0.76;entryY=0.024;entryDx=0;entryDy=0;entryPerimeter=0;exitX=0.5;exitY=1;exitDx=0;exitDy=0;" edge="1" parent="1" source="A_URDSyn6IpApK-KSMx7-13" target="A_URDSyn6IpApK-KSMx7-3">
          <mxGeometry width="50" height="50" relative="1" as="geometry">
            <mxPoint x="670" y="70" as="sourcePoint" />
            <mxPoint x="670" y="130" as="targetPoint" />
          </mxGeometry>
        </mxCell>
        <mxCell id="A_URDSyn6IpApK-KSMx7-13" value="2⁷" style="text;html=1;strokeColor=none;fillColor=none;align=center;verticalAlign=middle;whiteSpace=wrap;rounded=0;fontSize=30;" vertex="1" parent="1">
          <mxGeometry x="661" y="53" width="60" height="30" as="geometry" />
        </mxCell>
        <mxCell id="A_URDSyn6IpApK-KSMx7-14" value="" style="endArrow=classic;html=1;rounded=0;entryX=0.524;entryY=0.012;entryDx=0;entryDy=0;entryPerimeter=0;exitX=0.496;exitY=1.047;exitDx=0;exitDy=0;exitPerimeter=0;" edge="1" parent="1" source="A_URDSyn6IpApK-KSMx7-15" target="A_URDSyn6IpApK-KSMx7-3">
          <mxGeometry width="50" height="50" relative="1" as="geometry">
            <mxPoint x="602" y="70" as="sourcePoint" />
            <mxPoint x="602" y="130" as="targetPoint" />
          </mxGeometry>
        </mxCell>
        <mxCell id="A_URDSyn6IpApK-KSMx7-15" value="2¹⁵" style="text;html=1;strokeColor=none;fillColor=none;align=center;verticalAlign=middle;whiteSpace=wrap;rounded=0;fontSize=30;" vertex="1" parent="1">
          <mxGeometry x="525" y="53" width="60" height="30" as="geometry" />
        </mxCell>
        <mxCell id="A_URDSyn6IpApK-KSMx7-17" value="" style="endArrow=classic;html=1;rounded=0;entryX=0.02;entryY=0.06;entryDx=0;entryDy=0;entryPerimeter=0;exitX=0.5;exitY=1;exitDx=0;exitDy=0;" edge="1" parent="1" source="A_URDSyn6IpApK-KSMx7-18" target="A_URDSyn6IpApK-KSMx7-3">
          <mxGeometry width="50" height="50" relative="1" as="geometry">
            <mxPoint x="280" y="80" as="sourcePoint" />
            <mxPoint x="320" y="130" as="targetPoint" />
          </mxGeometry>
        </mxCell>
        <mxCell id="A_URDSyn6IpApK-KSMx7-18" value="原本表示 2³¹ 的位置用来表示正负号" style="text;html=1;strokeColor=none;fillColor=none;align=center;verticalAlign=middle;whiteSpace=wrap;rounded=0;fontSize=30;fontColor=#0000FF;" vertex="1" parent="1">
          <mxGeometry y="20" width="290" height="63" as="geometry" />
        </mxCell>
        <mxCell id="A_URDSyn6IpApK-KSMx7-19" value="" style="endArrow=classic;html=1;rounded=0;exitX=0.5;exitY=1;exitDx=0;exitDy=0;entryX=0.17;entryY=0.008;entryDx=0;entryDy=0;entryPerimeter=0;" edge="1" parent="1" source="A_URDSyn6IpApK-KSMx7-20" target="A_URDSyn6IpApK-KSMx7-3">
          <mxGeometry width="50" height="50" relative="1" as="geometry">
            <mxPoint x="397" y="90" as="sourcePoint" />
            <mxPoint x="397" y="133" as="targetPoint" />
          </mxGeometry>
        </mxCell>
        <mxCell id="A_URDSyn6IpApK-KSMx7-20" value="2²⁷" style="text;html=1;strokeColor=none;fillColor=none;align=center;verticalAlign=middle;whiteSpace=wrap;rounded=0;fontSize=30;" vertex="1" parent="1">
          <mxGeometry x="319" y="53" width="60" height="30" as="geometry" />
        </mxCell>
        <mxCell id="A_URDSyn6IpApK-KSMx7-21" value="" style="endArrow=classic;html=1;rounded=0;entryX=0.288;entryY=0.006;entryDx=0;entryDy=0;entryPerimeter=0;exitX=0.5;exitY=1;exitDx=0;exitDy=0;" edge="1" parent="1" source="A_URDSyn6IpApK-KSMx7-22" target="A_URDSyn6IpApK-KSMx7-3">
          <mxGeometry width="50" height="50" relative="1" as="geometry">
            <mxPoint x="467" y="90" as="sourcePoint" />
            <mxPoint x="467" y="133" as="targetPoint" />
          </mxGeometry>
        </mxCell>
        <mxCell id="A_URDSyn6IpApK-KSMx7-22" value="2²³" style="text;html=1;strokeColor=none;fillColor=none;align=center;verticalAlign=middle;whiteSpace=wrap;rounded=0;fontSize=30;" vertex="1" parent="1">
          <mxGeometry x="388" y="53" width="60" height="30" as="geometry" />
        </mxCell>
        <mxCell id="A_URDSyn6IpApK-KSMx7-23" value="" style="endArrow=classic;html=1;rounded=0;entryX=0.408;entryY=-0.007;entryDx=0;entryDy=0;entryPerimeter=0;exitX=0.5;exitY=1;exitDx=0;exitDy=0;" edge="1" parent="1" source="A_URDSyn6IpApK-KSMx7-24" target="A_URDSyn6IpApK-KSMx7-3">
          <mxGeometry width="50" height="50" relative="1" as="geometry">
            <mxPoint x="533" y="90" as="sourcePoint" />
            <mxPoint x="533" y="133" as="targetPoint" />
          </mxGeometry>
        </mxCell>
        <mxCell id="A_URDSyn6IpApK-KSMx7-24" value="2¹⁹" style="text;html=1;strokeColor=none;fillColor=none;align=center;verticalAlign=middle;whiteSpace=wrap;rounded=0;fontSize=30;" vertex="1" parent="1">
          <mxGeometry x="457" y="53" width="60" height="30" as="geometry" />
        </mxCell>
        <mxCell id="A_URDSyn6IpApK-KSMx7-25" value="2¹¹" style="text;html=1;strokeColor=none;fillColor=none;align=center;verticalAlign=middle;whiteSpace=wrap;rounded=0;fontSize=30;" vertex="1" parent="1">
          <mxGeometry x="594" y="53" width="60" height="30" as="geometry" />
        </mxCell>
        <mxCell id="A_URDSyn6IpApK-KSMx7-26" value="" style="endArrow=classic;html=1;rounded=0;entryX=0.644;entryY=0.024;entryDx=0;entryDy=0;entryPerimeter=0;exitX=0.5;exitY=1;exitDx=0;exitDy=0;" edge="1" source="A_URDSyn6IpApK-KSMx7-25" parent="1" target="A_URDSyn6IpApK-KSMx7-3">
          <mxGeometry width="50" height="50" relative="1" as="geometry">
            <mxPoint x="680" y="80" as="sourcePoint" />
            <mxPoint x="701" y="151" as="targetPoint" />
          </mxGeometry>
        </mxCell>
        <mxCell id="A_URDSyn6IpApK-KSMx7-27" value="Integer.MIN_VALUE" style="text;html=1;align=center;verticalAlign=middle;whiteSpace=wrap;rounded=0;fontSize=24;fillColor=none;fontStyle=1;fontColor=#FF33FF;" vertex="1" parent="1">
          <mxGeometry x="7" y="300" width="240" height="30" as="geometry" />
        </mxCell>
        <mxCell id="A_URDSyn6IpApK-KSMx7-29" value="" style="shape=flexArrow;endArrow=classic;html=1;rounded=0;" edge="1" parent="1">
          <mxGeometry width="50" height="50" relative="1" as="geometry">
            <mxPoint x="127" y="182" as="sourcePoint" />
            <mxPoint x="127" y="292.0000000000001" as="targetPoint" />
          </mxGeometry>
        </mxCell>
        <mxCell id="A_URDSyn6IpApK-KSMx7-30" value="+ 1" style="text;html=1;strokeColor=none;fillColor=none;align=center;verticalAlign=middle;whiteSpace=wrap;rounded=0;fontSize=30;fontColor=#FF33FF;" vertex="1" parent="1">
          <mxGeometry x="140" y="220" width="60" height="30" as="geometry" />
        </mxCell>
        <mxCell id="A_URDSyn6IpApK-KSMx7-31" value="&lt;font color=&quot;#ff0000&quot; style=&quot;font-size: 28px;&quot;&gt;1&lt;/font&gt;000 0000 0000 0000 0000 0000 0000 0000" style="text;html=1;strokeColor=none;fillColor=none;align=center;verticalAlign=middle;whiteSpace=wrap;rounded=0;fontSize=28;" vertex="1" parent="1">
          <mxGeometry x="260" y="295" width="570" height="40" as="geometry" />
        </mxCell>
        <mxCell id="A_URDSyn6IpApK-KSMx7-35" value="" style="shape=curlyBracket;whiteSpace=wrap;html=1;rounded=1;labelPosition=left;verticalLabelPosition=middle;align=right;verticalAlign=middle;rotation=-90;" vertex="1" parent="1">
          <mxGeometry x="517" y="-70" width="43" height="540" as="geometry" />
        </mxCell>
        <mxCell id="A_URDSyn6IpApK-KSMx7-36" value="2³¹ - 1" style="text;html=1;strokeColor=none;fillColor=none;align=center;verticalAlign=middle;whiteSpace=wrap;rounded=0;fontSize=30;" vertex="1" parent="1">
          <mxGeometry x="461" y="224" width="155" height="30" as="geometry" />
        </mxCell>
        <mxCell id="A_URDSyn6IpApK-KSMx7-37" value="" style="shape=curlyBracket;whiteSpace=wrap;html=1;rounded=1;labelPosition=left;verticalLabelPosition=middle;align=right;verticalAlign=middle;rotation=-90;" vertex="1" parent="1">
          <mxGeometry x="523.5" y="85" width="43" height="550" as="geometry" />
        </mxCell>
        <mxCell id="A_URDSyn6IpApK-KSMx7-38" value="- 2³¹" style="text;html=1;strokeColor=none;fillColor=none;align=center;verticalAlign=middle;whiteSpace=wrap;rounded=0;fontSize=30;" vertex="1" parent="1">
          <mxGeometry x="462.5" y="384" width="155" height="30" as="geometry" />
        </mxCell>
        <mxCell id="A_URDSyn6IpApK-KSMx7-39" value="- 1" style="text;html=1;align=center;verticalAlign=middle;whiteSpace=wrap;rounded=0;fontSize=30;fillColor=none;fontStyle=1;fontColor=#FF33FF;" vertex="1" parent="1">
          <mxGeometry x="3" y="780" width="240" height="30" as="geometry" />
        </mxCell>
        <mxCell id="A_URDSyn6IpApK-KSMx7-43" value="&lt;font color=&quot;#ff0000&quot;&gt;1&lt;/font&gt;111 1111 1111 1111 1111 1111 1111 1111" style="text;html=1;strokeColor=none;fillColor=none;align=center;verticalAlign=middle;whiteSpace=wrap;rounded=0;fontSize=30;" vertex="1" parent="1">
          <mxGeometry x="247.5" y="776" width="580" height="40" as="geometry" />
        </mxCell>
        <mxCell id="A_URDSyn6IpApK-KSMx7-44" value="- 2" style="text;html=1;align=center;verticalAlign=middle;whiteSpace=wrap;rounded=0;fontSize=30;fillColor=none;fontStyle=1;fontColor=#FF33FF;" vertex="1" parent="1">
          <mxGeometry x="2.75" y="710" width="240" height="30" as="geometry" />
        </mxCell>
        <mxCell id="A_URDSyn6IpApK-KSMx7-45" value="&lt;font color=&quot;#ff0000&quot;&gt;1&lt;/font&gt;111 1111 1111 1111 1111 1111 1111 1110" style="text;html=1;strokeColor=none;fillColor=none;align=center;verticalAlign=middle;whiteSpace=wrap;rounded=0;fontSize=30;" vertex="1" parent="1">
          <mxGeometry x="247.25" y="706" width="580" height="40" as="geometry" />
        </mxCell>
        <mxCell id="A_URDSyn6IpApK-KSMx7-46" value="" style="shape=flexArrow;endArrow=classic;html=1;rounded=0;" edge="1" parent="1">
          <mxGeometry width="50" height="50" relative="1" as="geometry">
            <mxPoint x="122.5" y="350" as="sourcePoint" />
            <mxPoint x="122.5" y="460.0000000000001" as="targetPoint" />
          </mxGeometry>
        </mxCell>
        <mxCell id="A_URDSyn6IpApK-KSMx7-47" value="+ 1" style="text;html=1;strokeColor=none;fillColor=none;align=center;verticalAlign=middle;whiteSpace=wrap;rounded=0;fontSize=30;fontColor=#FF33FF;" vertex="1" parent="1">
          <mxGeometry x="140" y="384" width="60" height="30" as="geometry" />
        </mxCell>
        <mxCell id="A_URDSyn6IpApK-KSMx7-48" value="&lt;font color=&quot;#ff0000&quot; style=&quot;font-size: 28px;&quot;&gt;1&lt;/font&gt;000 0000 0000 0000 0000 0000 0000 0001" style="text;html=1;strokeColor=none;fillColor=none;align=center;verticalAlign=middle;whiteSpace=wrap;rounded=0;fontSize=28;" vertex="1" parent="1">
          <mxGeometry x="257.25" y="475" width="570" height="40" as="geometry" />
        </mxCell>
        <mxCell id="A_URDSyn6IpApK-KSMx7-51" value="- 2³¹ + 1" style="text;html=1;align=center;verticalAlign=middle;whiteSpace=wrap;rounded=0;fontSize=30;fillColor=none;fontStyle=1;fontColor=#FF33FF;" vertex="1" parent="1">
          <mxGeometry x="2.75" y="480" width="240" height="30" as="geometry" />
        </mxCell>
        <mxCell id="A_URDSyn6IpApK-KSMx7-52" value="" style="endArrow=none;dashed=1;html=1;dashPattern=1 3;strokeWidth=9;rounded=0;fontStyle=1;fontSize=15;" edge="1" parent="1">
          <mxGeometry width="50" height="50" relative="1" as="geometry">
            <mxPoint x="120" y="610" as="sourcePoint" />
            <mxPoint x="120" y="530" as="targetPoint" />
          </mxGeometry>
        </mxCell>
        <mxCell id="A_URDSyn6IpApK-KSMx7-53" value="- 3" style="text;html=1;align=center;verticalAlign=middle;whiteSpace=wrap;rounded=0;fontSize=30;fillColor=none;fontStyle=1;fontColor=#FF33FF;" vertex="1" parent="1">
          <mxGeometry x="1" y="639" width="240" height="30" as="geometry" />
        </mxCell>
        <mxCell id="A_URDSyn6IpApK-KSMx7-54" value="&lt;font color=&quot;#ff0000&quot;&gt;1&lt;/font&gt;111 1111 1111 1111 1111 1111 1111 1101" style="text;html=1;strokeColor=none;fillColor=none;align=center;verticalAlign=middle;whiteSpace=wrap;rounded=0;fontSize=30;" vertex="1" parent="1">
          <mxGeometry x="245.5" y="635" width="580" height="40" as="geometry" />
        </mxCell>
      </root>
    </mxGraphModel>
  </diagram>
</mxfile>
